<?xml version="1.0" encoding="utf-8"?>
<!-- Generator: Adobe Illustrator 23.0.3, SVG Export Plug-In . SVG Version: 6.00 Build 0)  -->
<svg version="1.1" xmlns="http://www.w3.org/2000/svg" xmlns:xlink="http://www.w3.org/1999/xlink" x="0px" y="0px"
	 viewBox="0 0 5537 1367" style="enable-background:new 0 0 5537 1367;" xml:space="preserve">
<g id="Layer_1">
	<g>
		<path d="M943.49,720.23l-9.21-21.76l-32.23,2.09c-20.09,1.45-40.43,3.29-60.1,5.08c-4.59,0.42-9.22,0.84-13.87,1.25
			c3.47-14.16,5.65-23.89,5.7-26.04c0.21-9.12,0.43-18.48-0.22-27.92c19.41-10.9,39.34-21.48,58.67-31.75
			c17.44-9.27,35.47-18.85,53.08-28.63l7.38-4.1l-4.2-23.26c-11.35-62.92-23.09-127.98-37.53-191.47l-22.96-100.91l-0.34,103.49
			c-0.04,12.81-0.05,25.62-0.07,38.43c-0.04,43.31-0.09,88-1.32,132.02c-10.88,2.45-21.72,5.11-32.28,7.7
			c-15.5,3.8-31.44,7.71-47.3,10.9c-0.52-1.03-1.05-2.06-1.58-3.09c8.49-15.87,17.6-31.71,26.44-47.08
			c12.91-22.44,26.25-45.65,37.96-69.42l3.85-7.81l-6.34-5.98c-16.2-15.28-32.32-30.67-48.44-46.05
			c-22.82-21.78-46.42-44.31-69.93-66.2l-49.81-46.38l31.3,60.44c10.29,19.87,22.39,38.78,34.09,57.07
			c10.48,16.37,21.26,33.23,30.55,50.53c-7.18,7.19-14.27,14.49-21.17,21.6c-9.53,9.83-19.34,19.93-29.31,29.63
			c-8.14-5.04-16.78-10.01-26.11-15.02c2.6-5.51,5.19-11.01,7.84-16.49l3.75-7.76l-72.24-67.76c0,0,22.89,65.03,24.86,69.92
			c-3.09,3.34-6.1,5.97-9.11,7.95c-3.58,0.14-7.47,0.21-12,0.21c-0.32,0-0.64,0-0.96,0v-0.07v-0.01c-0.09,0-0.18,0-0.27,0
			c-0.09,0-0.18,0-0.27,0v0.01c-1.27,0.02-2.54,0.03-3.82,0.04c-0.03,0-0.07,0-0.1,0c-0.03,0-0.07,0-0.1,0
			c-1.27-0.01-2.54-0.03-3.82-0.04v-0.01c-0.09,0-0.18,0-0.27,0c-0.09,0-0.18,0-0.27,0v0.01v0.07c-0.32,0-0.64,0-0.96,0
			c-4.53,0-8.42-0.07-12-0.21c-3.01-1.98-6.02-4.61-9.11-7.95c1.97-4.89,24.86-69.92,24.86-69.92l-72.24,67.76l3.75,7.76
			c2.65,5.48,5.24,10.98,7.84,16.49c-9.33,5.01-17.98,9.98-26.11,15.02c-9.97-9.71-19.78-19.81-29.31-29.63
			c-6.9-7.11-13.98-14.41-21.17-21.6c9.29-17.3,20.07-34.16,30.55-50.53c11.7-18.29,23.81-37.2,34.09-57.07l31.3-60.44l-49.81,46.38
			c-23.51,21.89-47.11,44.41-69.93,66.2c-16.12,15.38-32.23,30.77-48.44,46.05l-6.34,5.98l3.85,7.81
			c11.71,23.78,25.06,46.98,37.96,69.42c8.84,15.37,17.96,31.22,26.44,47.08c-0.53,1.03-1.05,2.06-1.58,3.09
			c-15.86-3.19-31.8-7.1-47.3-10.9c-10.56-2.59-21.39-5.25-32.28-7.7c-1.23-44.02-1.27-88.71-1.32-132.02
			c-0.01-12.81-0.03-25.62-0.07-38.43l-0.34-103.49l-22.96,100.91c-14.44,63.48-26.18,128.55-37.53,191.47l-4.2,23.26l7.38,4.1
			c17.61,9.78,35.64,19.36,53.08,28.63c19.33,10.27,39.26,20.86,58.67,31.75c-0.65,9.44-0.43,18.8-0.22,27.92
			c0.05,2.11,2.16,11.56,5.54,25.35c-2.09-0.19-4.18-0.38-6.26-0.57c-19.67-1.79-40-3.63-60.1-5.08l-32.23-2.09l-9.21,21.76
			c-4.87,11.49-13.48,29.01-18.38,40.65c1.87,0.31,27.56,2.13,29.47,2.5c16.77,3.32,31.77,12.53,42.53,26.03
			c2.81-4.1,9.35-14.14,12.17-18.21c10.45,3.9,20.98,7.61,31.23,11.22c11.09,3.9,22.41,7.89,33.61,12.12
			c12.35,46.3,24.51,90.08,26.58,94.66l51.33,68.44l-0.74-90.75l1.49-87.78c7.44-44.63,13.9-49.72,31.99-69.18
			c14.31-15.4,18.91-16.4,34.41-16.39v0.03c0.35,0,0.62,0,0.74,0c1.27,0,2.47,0,3.62-0.01c0.03,0,0.07,0,0.1,0c0.03,0,0.07,0,0.1,0
			c1.15,0.01,2.35,0.01,3.62,0.01c0.12,0,0.39,0,0.74,0v-0.03c15.5-0.01,20.11,0.99,34.41,16.39
			c18.08,19.46,24.55,24.55,31.99,69.18l1.49,87.78l-0.74,90.75l51.33-68.44c2.03-4.47,13.67-46.36,25.73-91.46
			c13.87-5.44,28.07-10.45,41.9-15.32c10.25-3.61,20.78-7.31,31.23-11.22c2.83,4.07,9.36,14.12,12.17,18.21
			c10.76-13.5,25.76-22.71,42.53-26.03c1.91-0.38,27.6-2.2,29.47-2.5C956.97,749.25,948.36,731.73,943.49,720.23z"/>
		<path d="M1016.83,908.48c-4.94-13.32-19.49-43.95-24.69-57.23c-10.68,10.61-35.54,32.24-40.99,37.43
			c5.99,9.14,19.36,21.88,25.37,31.01l72.9,75.88L1016.83,908.48z"/>
		<path d="M302.42,908.48l-28.13,80.39l68.44-69.18c6.01-9.13,19.38-21.87,25.37-31.01c-5.45-5.18-30.32-26.82-40.99-37.43
			C321.91,864.53,307.36,895.16,302.42,908.48z"/>
	</g>
	<g>
		<path d="M1121.78,487.15c-25.13-59.41-61.09-112.75-106.89-158.55c-45.8-45.8-99.14-81.76-158.55-106.89
			c-61.53-26.02-126.86-39.22-194.18-39.22s-132.66,13.2-194.18,39.22c-59.41,25.13-112.75,61.09-158.55,106.89
			c-45.8,45.8-81.76,99.14-106.89,158.55c-26.02,61.53-39.22,126.86-39.22,194.18s13.2,132.66,39.22,194.18
			c25.13,59.41,61.09,112.75,106.89,158.55c45.8,45.8,99.14,81.76,158.55,106.89c61.53,26.02,126.86,39.22,194.18,39.22
			s132.66-13.2,194.18-39.22c59.41-25.13,112.75-61.09,158.55-106.89c45.8-45.8,81.76-99.14,106.89-158.55
			c26.02-61.53,39.22-126.86,39.22-194.18S1147.8,548.68,1121.78,487.15z M878.93,1080.57c-2.6-35.53,0.08-67.21,8-94.41
			c1.03-3.55,1.81-5.77,3.36-10.19c2.25-6.44,6.02-17.22,14.31-42.79c1.74-5.36,3.22-9.99,4.51-14.01
			c6.69-20.86,8.08-25.21,12.75-32.27c2.57-3.9,3.58-4.84,10.09-10.96c5.38-5.05,14.38-13.5,30.72-29.75
			c10.21-10.15,20.76-20.65,24.6-37.19c1.42-6.11,3.18-13.72-0.35-20.29c-4.19-7.81-14.67-11.93-30.32-11.93
			c-7.1,0-15.03,0.86-23.59,2.55c-12.17,2.41-23.03,9.34-30.56,19.52c-21.59,29.18-40.06,60.57-54.92,93.31
			c-18.2,40.1-26.65,72.49-35.6,106.77c-10.12,38.74-17.83,78.64-22.97,118.67c-30.95,8.98-63.25,14.76-96.54,16.95V778.87
			c1.5-14.25-2.53-28.29-11.08-38.53c-6.21-7.44-14.18-12.02-21.87-12.56c-0.54-0.04-1.09-0.06-1.63-0.06
			c-8.44,0-17.41,4.44-24.61,12.19c-9.39,10.11-14.17,24.28-13.13,38.91v354.81c-31.82-2.92-62.69-9.12-92.26-18.27
			c-5.13-39.27-12.76-78.4-22.68-116.42c-8.95-34.29-17.41-66.67-35.6-106.77c-14.3-31.51-31.96-61.8-52.51-90.03
			c-9.32-12.81-22.81-21.23-37.98-23.71c-6.66-1.09-12.91-1.64-18.58-1.64c-15.65,0-26.14,4.13-30.32,11.93
			c-3.52,6.57-1.76,14.18-0.35,20.29c3.83,16.54,14.39,27.04,24.6,37.19c16.34,16.25,25.34,24.7,30.72,29.75
			c6.52,6.12,7.52,7.06,10.09,10.96c4.67,7.07,6.06,11.41,12.75,32.28c1.29,4.02,2.77,8.65,4.51,14.01
			c8.29,25.57,12.05,36.35,14.31,42.79c1.55,4.42,2.32,6.64,3.36,10.19c7.64,26.21,10.4,56.57,8.27,90.53
			c-137.61-78.05-230.46-225.85-230.46-395.35c0-250.85,203.35-454.2,454.2-454.2s454.2,203.35,454.2,454.2
			C1116.37,853.69,1020.37,1003.61,878.93,1080.57z"/>
	</g>
</g>
<g id="Layer_3">
	<g>
		<path d="M2146.99,466.72h-348.1v424.21h63.72V738.12c5.5,0.79,9.83,1.18,12.98,1.18h145.14l127.44,151.63h75.52v-8.85
			L2103.92,739.3h43.07c21.24,0,39.33-7.57,54.28-22.71c14.94-15.14,22.42-33.13,22.42-53.99V543.42c0-20.84-7.48-38.84-22.42-53.99
			C2186.32,474.3,2168.23,466.72,2146.99,466.72z M2159.97,662.6c0,3.54-1.28,6.59-3.83,9.15c-2.56,2.56-5.61,3.83-9.15,3.83h-271.4
			c-3.54,0-6.59-1.27-9.15-3.83c-2.56-2.55-3.83-5.6-3.83-9.15V543.42c0-3.54,1.27-6.58,3.83-9.15c2.55-2.55,5.61-3.84,9.15-3.84
			h271.4c3.54,0,6.58,1.28,9.15,3.84c2.55,2.56,3.83,5.6,3.83,9.15V662.6z"/>
		<path d="M2633.15,466.13h-271.4c-21.24,0-39.34,7.48-54.28,22.42c-14.95,14.95-22.42,33.04-22.42,54.28v271.4
			c0,21.24,7.47,39.34,22.42,54.28c14.94,14.95,33.04,22.42,54.28,22.42h271.4c21.24,0,39.33-7.47,54.28-22.42
			c14.94-14.94,22.42-33.04,22.42-54.28v-271.4c0-21.24-7.48-39.33-22.42-54.28C2672.47,473.61,2654.39,466.13,2633.15,466.13z
			 M2646.13,814.23c0,3.54-1.28,6.59-3.83,9.14c-2.56,2.56-5.61,3.84-9.15,3.84h-271.4c-3.54,0-6.59-1.27-9.14-3.84
			c-2.56-2.55-3.83-5.6-3.83-9.14v-271.4c0-3.54,1.27-6.58,3.83-9.15c2.55-2.55,5.6-3.83,9.14-3.83h271.4
			c3.54,0,6.58,1.28,9.15,3.83c2.55,2.56,3.83,5.6,3.83,9.15V814.23z"/>
		<polygon points="3135.82,805.97 2850.26,466.13 2774.74,466.13 2774.74,890.93 2838.46,890.93 2838.46,551.09 3124.02,890.93 
			3199.54,890.93 3199.54,466.13 3135.82,466.13 		"/>
		<path d="M3610.76,466.13h-271.4c-21.24,0-39.34,7.48-54.28,22.42c-14.95,14.95-22.42,33.04-22.42,54.28v90.86
			c0,21.24,7.47,39.34,22.42,54.28c14.94,14.95,33.04,22.42,54.28,22.42h271.4c3.54,0,6.58,1.28,9.14,3.83
			c2.55,2.56,3.83,5.6,3.83,9.15v90.86c0,3.54-1.28,6.59-3.83,9.14c-2.56,2.56-5.6,3.84-9.14,3.84h-271.4
			c-3.54,0-6.59-1.27-9.15-3.84c-2.56-2.55-3.83-5.6-3.83-9.14v-24.78h-63.72v24.78c0,21.24,7.47,39.34,22.42,54.28
			c14.94,14.95,33.04,22.42,54.28,22.42h271.4c21.24,0,39.33-7.47,54.28-22.42c14.94-14.94,22.42-33.04,22.42-54.28v-90.86
			c0-21.24-7.48-39.33-22.42-54.28c-14.95-14.94-33.04-22.42-54.28-22.42h-271.4c-3.54,0-6.59-1.27-9.15-3.84
			c-2.56-2.55-3.83-5.6-3.83-9.15v-90.86c0-3.54,1.27-6.58,3.83-9.15c2.55-2.55,5.61-3.83,9.15-3.83h271.4
			c3.54,0,6.58,1.28,9.14,3.83c2.55,2.56,3.83,5.6,3.83,9.15v24.78h63.72v-24.78c0-21.24-7.48-39.33-22.42-54.28
			C3650.09,473.61,3632,466.13,3610.76,466.13z"/>
		<rect x="3751.17" y="466.13" width="63.72" height="424.8"/>
		<path d="M4228.48,466.13h-271.4c-21.24,0-39.34,7.48-54.28,22.42c-14.95,14.95-22.42,33.04-22.42,54.28v271.4
			c0,21.24,7.47,39.34,22.42,54.28c14.94,14.95,33.04,22.42,54.28,22.42h271.4c21.24,0,39.33-7.47,54.28-22.42
			c14.94-14.94,22.42-33.04,22.42-54.28V658.47h-164.02v63.72h100.3v92.04c0,3.54-1.28,6.59-3.83,9.14
			c-2.56,2.56-5.61,3.84-9.15,3.84h-271.4c-3.54,0-6.59-1.27-9.15-3.84c-2.56-2.55-3.83-5.6-3.83-9.14v-271.4
			c0-3.54,1.27-6.58,3.83-9.15c2.55-2.55,5.61-3.83,9.15-3.83h271.4c3.54,0,6.58,1.28,9.15,3.83c2.55,2.56,3.83,5.6,3.83,9.15v25.37
			h63.72v-25.37c0-21.24-7.48-39.33-22.42-54.28C4267.8,473.61,4249.72,466.13,4228.48,466.13z"/>
		<polygon points="4741.77,646.67 4434.38,646.67 4434.38,466.13 4370.66,466.13 4370.66,890.93 4434.38,890.93 4434.38,710.39 
			4741.77,710.39 4741.77,890.93 4805.49,890.93 4805.49,466.13 4741.77,466.13 		"/>
		<polygon points="4850.92,466.13 4850.92,529.85 5031.46,529.85 5031.46,890.93 5095.18,890.93 5095.18,529.85 5275.72,529.85 
			5275.72,466.13 		"/>
		<polygon points="1321,530 1488,530 1488,825 1320,825 1320,889 1735,889 1735,825 1551,825 1551,530 1736,530 1736,466 1321,466 
					"/>
	</g>
</g>
<g id="Layer_4">
</g>
</svg>
